<?xml version="1.0" encoding="utf-8"?>
<!-- Generator: Adobe Illustrator 26.5.0, SVG Export Plug-In . SVG Version: 6.00 Build 0)  -->
<svg version="1.1" id="Layer_1" xmlns="http://www.w3.org/2000/svg" xmlns:xlink="http://www.w3.org/1999/xlink" x="0px" y="0px"
	 viewBox="0 0 120 120" style="enable-background:new 0 0 120 120;" xml:space="preserve">
<g>
	<path d="M0,23.14h23.14V0H0V23.14z M7.69,3.64h8.29v1.83H9.63v4.73h6.13v1.83H9.63v4.84h6.56v1.83h-8.5V3.64z"/>
	<path d="M24.22,23.14h23.14V0H24.22V23.14z M30.76,3.64h1.94l5.4,9.9c0.32,0.58,0.77,1.57,0.77,1.57s-0.04-1.03-0.04-1.57v-9.9
		h1.94V18.7h-1.94l-5.4-9.9c-0.32-0.58-0.77-1.57-0.77-1.57S32.7,8.26,32.7,8.8v9.9h-1.94V3.64z"/>
	<path d="M48.43,23.14h23.14V0H48.43V23.14z M54.9,3.64h10.11v1.83h-4.09V18.7h-1.94V5.47H54.9V3.64z"/>
	<path d="M72.65,23.14h23.14V0H72.65V23.14z M80.29,3.64h8.29v1.83h-6.35v4.73h6.13v1.83h-6.13v4.84h6.56v1.83h-8.5V3.64z"/>
	<path d="M96.86,0v23.14H120V0H96.86z M112.76,14.26l0.06,1.08c0.09,1.27,0.11,2.58,0.37,3.1v0.09h-1.94
		c-0.32-0.9-0.3-2.56-0.39-3.81c-0.06-1.01-0.34-1.59-0.71-1.96c-0.39-0.37-0.9-0.47-1.7-0.47h-3.01v6.24h-1.94V3.46h5.06
		c1.61,0,2.65,0.47,3.38,1.25c0.78,0.8,1.25,1.92,1.25,3.16c0,1.76-0.84,2.91-2.07,3.55C112.01,11.79,112.66,12.56,112.76,14.26z"/>
	<path d="M108.46,5.29h-3.01v5.17h3.01c1.2,0,1.85-0.34,2.26-0.9c0.34-0.45,0.54-1.03,0.54-1.68c0-0.65-0.19-1.23-0.54-1.68
		C110.31,5.63,109.66,5.29,108.46,5.29z"/>
	<path d="M14.31,34.11c0.39-0.47,0.65-1.08,0.65-1.74c0-0.67-0.26-1.27-0.65-1.74c-0.5-0.58-1.23-0.95-2.48-0.95H9.36v5.38h2.47
		C13.09,35.06,13.82,34.7,14.31,34.11z"/>
	<path d="M0,47.35h23.14V24.22H0V47.35z M7.43,27.85h4.52c1.49,0,2.45,0.37,3.23,0.97c1.03,0.82,1.72,2.11,1.72,3.55
		c0,1.44-0.69,2.73-1.72,3.55c-0.77,0.6-1.74,0.97-3.23,0.97H9.36v6.03H7.43V27.85z"/>
	<path d="M24.22,47.35h23.14V24.22H24.22V47.35z M31.08,27.85h5.06c1.61,0,2.65,0.47,3.38,1.25c0.78,0.8,1.25,1.92,1.25,3.16
		c0,1.76-0.84,2.91-2.07,3.55c0.88,0.37,1.53,1.14,1.64,2.84l0.06,1.08c0.09,1.27,0.11,2.58,0.37,3.1v0.09h-1.94
		c-0.32-0.9-0.3-2.56-0.39-3.81c-0.06-1.01-0.34-1.59-0.71-1.96c-0.39-0.37-0.9-0.47-1.7-0.47h-3.01v6.24h-1.94V27.85z"/>
	<path d="M38.29,33.94c0.34-0.45,0.54-1.03,0.54-1.68c0-0.65-0.19-1.23-0.54-1.68c-0.41-0.56-1.05-0.9-2.26-0.9h-3.01v5.17h3.01
		C37.24,34.85,37.89,34.5,38.29,33.94z"/>
	<path d="M48.43,47.35h23.14V24.22H48.43V47.35z M58.99,27.85h1.94v15.06h-1.94V27.85z"/>
	<path d="M72.65,47.35h23.14V24.22H72.65V47.35z M79.53,37.39l1.94-0.17c-0.15,0.5-0.26,0.97-0.26,1.57c0,1.7,1.53,2.67,3.14,2.67
		c1.44,0,2.86-0.84,2.86-2.54c0-1.94-2.09-2.56-3.53-3.03c-2.02-0.67-3.94-1.61-3.94-4.28c0-2.45,2.04-4.07,4.52-4.07
		c2.32,0,4.45,1.53,4.45,4.07c0,0.37-0.09,0.9-0.17,1.18l-1.94,0.19c0.11-0.3,0.21-0.82,0.21-1.25c0-1.48-1.08-2.41-2.56-2.41
		c-1.33,0-2.63,0.8-2.63,2.28c0,1.91,1.87,2.26,3.72,2.97c1.74,0.67,3.74,1.57,3.74,4.37c0,2.58-2.17,4.3-4.78,4.3
		c-2.47,0-5.01-1.57-5.01-4.3C79.32,38.31,79.42,37.71,79.53,37.39z"/>
	<path d="M96.86,47.35H120V24.22H96.86V47.35z M104.32,27.67h8.29v1.83h-6.35v4.73h6.13v1.83h-6.13v4.84h6.56v1.83h-8.5V27.67z"/>
	<path d="M0,71.57h23.14V48.43H0V71.57z M10.6,52.07h1.94v15.06H10.6V52.07z"/>
	<path d="M24.22,71.57h23.14V48.43H24.22V71.57z M34.8,52.07h1.94v15.06H34.8V52.07z"/>
	<path d="M48.43,71.57h23.14V48.43H48.43V71.57z M58.99,52.07h1.94v15.06h-1.94V52.07z"/>
	<path d="M72.65,71.57h23.14V48.43H72.65V71.57z M83.19,52.07h1.94v15.06h-1.94V52.07z"/>
	<path d="M96.86,71.57H120V48.43H96.86V71.57z M107.22,51.89h1.94v15.06h-1.94V51.89z"/>
	<path d="M13.85,82.2c0.41-0.43,0.62-1.03,0.62-1.72c0-0.69-0.21-1.29-0.62-1.72c-0.37-0.41-0.9-0.65-1.96-0.65H8.88v4.73h3.01
		C12.95,82.85,13.48,82.61,13.85,82.2z"/>
	<path d="M0,95.78h23.14V72.65H0V95.78z M6.94,76.28H12c1.59,0,2.58,0.47,3.29,1.23c0.71,0.75,1.12,1.81,1.12,2.97
		c0,1.33-0.69,2.5-1.66,3.16c1.18,0.58,2.09,1.94,2.09,3.46c0,0.95-0.28,1.83-0.77,2.54c-0.71,1.03-1.87,1.7-3.7,1.7H6.94V76.28z"/>
	<path d="M14.34,88.76c0.37-0.43,0.56-1.01,0.56-1.66c0-0.65-0.19-1.23-0.56-1.66c-0.39-0.47-0.97-0.77-2.09-0.77H8.88v4.84h3.38
		C13.38,89.52,13.96,89.24,14.34,88.76z"/>
	<path d="M24.22,95.78h23.14V72.65H24.22V95.78z M32.05,76.28h1.94v13.24h6.56v1.83h-8.5V76.28z"/>
	<path d="M48.43,95.78h23.14V72.65H48.43V95.78z M59.96,75.96c3.66,0,5.7,3.12,5.7,7.85c0,4.73-2.04,7.86-5.7,7.86
		s-5.7-3.12-5.7-7.86C54.26,79.08,56.3,75.96,59.96,75.96z"/>
	<path d="M59.96,89.84c2.47,0,3.77-2.37,3.77-6.03c0-3.66-1.29-6.03-3.77-6.03c-2.48,0-3.77,2.37-3.77,6.03
		C56.2,87.47,57.49,89.84,59.96,89.84z"/>
	<path d="M72.65,95.78h23.14V72.65H72.65V95.78z M84.53,75.96c2.78,0,4.69,2.07,4.69,4.6c0,0.26,0,0.5-0.04,0.78l-1.96,0.21
		c0.04-0.21,0.06-0.52,0.06-0.82c0-1.64-1.01-2.95-2.75-2.95c-2.95,0-3.81,3.36-3.81,6.03c0.11,2.56,0.8,6.03,3.79,6.03
		c2.56,0,3.21-2.17,3.21-4v-0.19l1.94,0.22v0.15c0,3.08-1.7,5.66-5.14,5.66c-4.3,0-5.72-4.37-5.72-7.86
		C78.78,80.18,80.2,75.96,84.53,75.96z"/>
	<path d="M96.86,95.78H120V72.65H96.86V95.78z M103.89,76.1h1.94v7.68l5.47-7.68h2.28l-4.65,6.43l4.65,8.63h-2.11l-3.7-7.06
		l-1.94,2.67v4.39h-1.94V76.1z"/>
	<path d="M0,120h23.14V96.86H0V120z M11.93,100.17c2.78,0,4.69,2.07,4.69,4.6c0,0.26,0,0.5-0.04,0.78l-1.96,0.21
		c0.04-0.21,0.06-0.52,0.06-0.82c0-1.64-1.01-2.95-2.75-2.95c-2.95,0-3.81,3.36-3.81,6.03c0.11,2.56,0.8,6.03,3.79,6.03
		c2.56,0,3.21-2.17,3.21-4v-0.19l1.94,0.22v0.15c0,3.08-1.7,5.66-5.14,5.66c-4.3,0-5.72-4.37-5.72-7.86
		C6.19,104.39,7.61,100.17,11.93,100.17z"/>
	<path d="M24.22,120h23.14V96.86H24.22V120z M30.49,100.5h1.94v6.56h6.67v-6.56h1.94v15.06H39.1v-6.67h-6.67v6.67h-1.94V100.5z"/>
	<path d="M48.43,120h23.14V96.86H48.43V120z M58.99,100.5h1.94l4.84,15.06h-2l-1.1-3.44h-5.42l-1.1,3.44h-2L58.99,100.5z"/>
	<path d="M60.31,104.59c-0.21-0.67-0.34-1.25-0.34-1.25s-0.13,0.58-0.34,1.25l-1.79,5.7h4.26L60.31,104.59z"/>
	<path d="M72.65,120h23.14V96.86H72.65V120z M83.19,100.5h1.94v15.06h-1.94V100.5z"/>
	<path d="M96.86,120H120V96.86H96.86V120z M103.19,100.32h1.94l5.4,9.9c0.32,0.58,0.77,1.57,0.77,1.57s-0.04-1.03-0.04-1.57v-9.9
		h1.94v15.06h-1.94l-5.4-9.9c-0.32-0.58-0.77-1.57-0.77-1.57s0.04,1.03,0.04,1.57v9.9h-1.94V100.32z"/>
</g>
</svg>
